<svg font-family="'SFMono-Regular','Menlo','Monaco','Consolas','Liberation Mono','Courier New',monospace" font-size="13" xmlns="http://www.w3.org/2000/svg" width="804" height="528" viewBox="0 0 804 528">
  <rect width="804" height="528" fill="#1e1e2e" rx="6"/>
  <text x="12.0" y="26" fill="#89b4fa">┌────────────────────────────────────────────────┐</text>
  <text x="402.0" y="26" fill="#a6e3a1">┌────────────────────────────────────────────────┐</text>
  <text x="12.0" y="44" fill="#89b4fa">│</text>
  <text x="27.6" y="44" fill="#89b4fa" font-weight="bold">Agent A (implementer) — claude-sonnet</text>
  <text x="394.2" y="44" fill="#89b4fa">│</text>
  <text x="402.0" y="44" fill="#a6e3a1">│</text>
  <text x="417.6" y="44" fill="#a6e3a1" font-weight="bold">Agent B (reviewer) — claude-sonnet</text>
  <text x="784.2" y="44" fill="#a6e3a1">│</text>
  <text x="12.0" y="62" fill="#89b4fa">│</text>
  <text x="19.8" y="62" fill="#cdd6f4"> I'll start by reading the issue and            </text>
  <text x="394.2" y="62" fill="#89b4fa">│</text>
  <text x="402.0" y="62" fill="#a6e3a1">│</text>
  <text x="417.6" y="62" fill="#cdd6f4" opacity="0.5">(idle — active in review stage)</text>
  <text x="784.2" y="62" fill="#a6e3a1">│</text>
  <text x="12.0" y="80" fill="#89b4fa">│</text>
  <text x="19.8" y="80" fill="#cdd6f4"> exploring the repository structure.            </text>
  <text x="394.2" y="80" fill="#89b4fa">│</text>
  <text x="402.0" y="80" fill="#a6e3a1">│</text>
  <text x="784.2" y="80" fill="#a6e3a1">│</text>
  <text x="12.0" y="98" fill="#89b4fa">│</text>
  <text x="27.6" y="98" fill="#cdd6f4" opacity="0.5">┄┄┄┄┄┄┄┄┄┄┄┄┄┄┄┄┄┄┄┄┄┄┄┄┄┄┄┄┄┄┄┄┄┄┄┄ Prompt </text>
  <text x="394.2" y="98" fill="#89b4fa">│</text>
  <text x="402.0" y="98" fill="#a6e3a1">│</text>
  <text x="784.2" y="98" fill="#a6e3a1">│</text>
  <text x="12.0" y="116" fill="#89b4fa">│</text>
  <text x="27.6" y="116" fill="#cdd6f4" opacity="0.5">┄┄┄┄</text>
  <text x="394.2" y="116" fill="#89b4fa">│</text>
  <text x="402.0" y="116" fill="#a6e3a1">│</text>
  <text x="784.2" y="116" fill="#a6e3a1">│</text>
  <text x="12.0" y="134" fill="#89b4fa">│</text>
  <text x="27.6" y="134" fill="#cdd6f4" opacity="0.5">┄┄┄┄┄┄┄┄┄┄┄┄┄┄┄┄┄┄┄┄┄┄┄┄┄┄┄┄┄┄┄┄</text>
  <text x="394.2" y="134" fill="#89b4fa">│</text>
  <text x="402.0" y="134" fill="#a6e3a1">│</text>
  <text x="784.2" y="134" fill="#a6e3a1">│</text>
  <text x="12.0" y="152" fill="#89b4fa">│</text>
  <text x="27.6" y="152" fill="#cdd6f4" opacity="0.5">▶ Implement issue #42 in a new branch.</text>
  <text x="394.2" y="152" fill="#89b4fa">│</text>
  <text x="402.0" y="152" fill="#a6e3a1">│</text>
  <text x="784.2" y="152" fill="#a6e3a1">│</text>
  <text x="12.0" y="170" fill="#89b4fa">│</text>
  <text x="27.6" y="170" fill="#cdd6f4" opacity="0.5">┄┄┄┄┄┄┄┄┄┄┄┄┄┄┄┄┄┄┄┄┄┄┄┄┄┄┄┄┄┄┄┄┄┄┄┄┄┄┄┄┄┄┄┄┄┄</text>
  <text x="394.2" y="170" fill="#89b4fa">│</text>
  <text x="402.0" y="170" fill="#a6e3a1">│</text>
  <text x="784.2" y="170" fill="#a6e3a1">│</text>
  <text x="12.0" y="188" fill="#89b4fa">│</text>
  <text x="27.6" y="188" fill="#cdd6f4" opacity="0.5">┄┄</text>
  <text x="394.2" y="188" fill="#89b4fa">│</text>
  <text x="402.0" y="188" fill="#a6e3a1">│</text>
  <text x="784.2" y="188" fill="#a6e3a1">│</text>
  <text x="12.0" y="206" fill="#89b4fa">│</text>
  <text x="27.6" y="206" fill="#cdd6f4" opacity="0.5">┄┄┄┄┄┄┄┄┄┄┄┄┄┄┄┄┄┄┄┄┄┄┄┄</text>
  <text x="394.2" y="206" fill="#89b4fa">│</text>
  <text x="402.0" y="206" fill="#a6e3a1">│</text>
  <text x="784.2" y="206" fill="#a6e3a1">│</text>
  <text x="12.0" y="224" fill="#89b4fa">│</text>
  <text x="19.8" y="224" fill="#cdd6f4"> Let me check the existing code to              </text>
  <text x="394.2" y="224" fill="#89b4fa">│</text>
  <text x="402.0" y="224" fill="#a6e3a1">│</text>
  <text x="784.2" y="224" fill="#a6e3a1">│</text>
  <text x="12.0" y="242" fill="#89b4fa">│</text>
  <text x="19.8" y="242" fill="#cdd6f4"> understand the project structure.              </text>
  <text x="394.2" y="242" fill="#89b4fa">│</text>
  <text x="402.0" y="242" fill="#a6e3a1">│</text>
  <text x="784.2" y="242" fill="#a6e3a1">│</text>
  <text x="12.0" y="260" fill="#89b4fa">│</text>
  <text x="19.8" y="260" fill="#cdd6f4"> I see the registration handler in              </text>
  <text x="394.2" y="260" fill="#89b4fa">│</text>
  <text x="402.0" y="260" fill="#a6e3a1">│</text>
  <text x="784.2" y="260" fill="#a6e3a1">│</text>
  <text x="12.0" y="278" fill="#89b4fa">│</text>
  <text x="19.8" y="278" fill="#cdd6f4"> src/routes/auth.ts. I'll add                   </text>
  <text x="394.2" y="278" fill="#89b4fa">│</text>
  <text x="402.0" y="278" fill="#a6e3a1">│</text>
  <text x="784.2" y="278" fill="#a6e3a1">│</text>
  <text x="12.0" y="296" fill="#89b4fa">│</text>
  <text x="19.8" y="296" fill="#cdd6f4"> zod schema validation for the                  </text>
  <text x="394.2" y="296" fill="#89b4fa">│</text>
  <text x="402.0" y="296" fill="#a6e3a1">│</text>
  <text x="784.2" y="296" fill="#a6e3a1">│</text>
  <text x="12.0" y="314" fill="#89b4fa">│</text>
  <text x="19.8" y="314" fill="#cdd6f4"> request body.                                  </text>
  <text x="394.2" y="314" fill="#89b4fa">│</text>
  <text x="402.0" y="314" fill="#a6e3a1">│</text>
  <text x="784.2" y="314" fill="#a6e3a1">│</text>
  <text x="12.0" y="332" fill="#89b4fa">│</text>
  <text x="394.2" y="332" fill="#89b4fa">│</text>
  <text x="402.0" y="332" fill="#a6e3a1">│</text>
  <text x="784.2" y="332" fill="#a6e3a1">│</text>
  <text x="12.0" y="350" fill="#89b4fa">│</text>
  <text x="394.2" y="350" fill="#89b4fa">│</text>
  <text x="402.0" y="350" fill="#a6e3a1">│</text>
  <text x="784.2" y="350" fill="#a6e3a1">│</text>
  <text x="12.0" y="368" fill="#89b4fa">│</text>
  <text x="394.2" y="368" fill="#89b4fa">│</text>
  <text x="402.0" y="368" fill="#a6e3a1">│</text>
  <text x="784.2" y="368" fill="#a6e3a1">│</text>
  <text x="12.0" y="386" fill="#89b4fa">│</text>
  <text x="394.2" y="386" fill="#89b4fa">│</text>
  <text x="402.0" y="386" fill="#a6e3a1">│</text>
  <text x="784.2" y="386" fill="#a6e3a1">│</text>
  <text x="12.0" y="404" fill="#89b4fa">│</text>
  <text x="394.2" y="404" fill="#89b4fa">│</text>
  <text x="402.0" y="404" fill="#a6e3a1">│</text>
  <text x="784.2" y="404" fill="#a6e3a1">│</text>
  <text x="12.0" y="422" fill="#89b4fa">│</text>
  <text x="394.2" y="422" fill="#89b4fa">│</text>
  <text x="402.0" y="422" fill="#a6e3a1">│</text>
  <text x="784.2" y="422" fill="#a6e3a1">│</text>
  <text x="12.0" y="440" fill="#89b4fa">└────────────────────────────────────────────────┘</text>
  <text x="402.0" y="440" fill="#a6e3a1">└────────────────────────────────────────────────┘</text>
  <text x="12.0" y="458" fill="#6c7086">┌──────────────────────────────────────────────────────────────────────────────────────────────────┐</text>
  <text x="12.0" y="476" fill="#6c7086">│</text>
  <text x="27.6" y="476" fill="#89dceb" font-weight="bold">acme/webapp#42</text>
  <text x="136.8" y="476" fill="#cdd6f4">  |  </text>
  <text x="175.8" y="476" fill="#cdd6f4" font-weight="bold">Stage 2: Implement</text>
  <text x="316.2" y="476" fill="#cdd6f4">  |  Round: 1 (in progress)                                 </text>
  <text x="784.2" y="476" fill="#6c7086">│</text>
  <text x="12.0" y="494" fill="#6c7086">└──────────────────────────────────────────────────────────────────────────────────────────────────┘</text>
  <text x="19.8" y="512" fill="#cdd6f4" opacity="0.5">Pipeline running...</text>
</svg>
